<?xml version="1.0" encoding="UTF-8"?>
<svg id="Capa_1" data-name="Capa 1" xmlns="http://www.w3.org/2000/svg" viewBox="0 0 300 300">
  <defs>
    <style>
      .cls-1 {
        fill: #233661;
      }
    </style>
  </defs>
  <path class="cls-1" d="m287.61,113.1v-.14c-37.21-9.8-86.55-15.46-137.58-15.46s-100.42,5.66-137.64,15.46v.14c37.2-7.69,86.64-12.08,137.64-12.08s100.38,4.4,137.58,12.09"/>
  <path class="cls-1" d="m61.63,170.71c-.37-.2-.82-.31-1.9-.31h-2.24v4.96h2.78c1.51,0,2.45-.96,2.45-2.51,0-1.02-.39-1.74-1.1-2.14"/>
  <path class="cls-1" d="m82.32,170.24c-2.82,0-5.11,2.27-5.11,5.29s2.29,5.47,5.11,5.47,5.09-2.35,5.09-5.47-2.27-5.29-5.09-5.29"/>
  <path class="cls-1" d="m195.89,170.24c-2.82,0-5.11,2.27-5.11,5.29s2.29,5.47,5.11,5.47,5.09-2.35,5.09-5.47-2.27-5.29-5.09-5.29"/>
  <path class="cls-1" d="m40.4,170.4h-2.82v5.35h2.8c1.67,0,2.68-1.04,2.68-2.7s-1.02-2.65-2.67-2.65"/>
  <path class="cls-1" d="m12.39,157.19v32.99l.76.16c37.2,7.7,85.8,11.93,136.83,11.93s99.66-4.24,136.87-11.94l.76-.16v-32.98H12.39Zm28.3,20.24h-3.12v5.11h-1.94v-13.84h5.06c2.53,0,4.35,1.7,4.35,4.33s-1.82,4.39-4.35,4.39m22.68,5.11l-2.92-5.51h-2.96v5.51h-1.94v-13.84h4.23c1.45,0,2.06.12,2.59.31,1.41.53,2.33,1.92,2.33,3.74s-.98,3.25-2.49,3.74v.04s.16.18.41.63l2.94,5.37h-2.2Zm18.94.24c-4,0-7.11-3.18-7.11-7.25s3.12-7.05,7.11-7.05,7.09,3.08,7.09,7.05-3.1,7.25-7.09,7.25m25.56-12.39h-5.68v4.54h4.84v1.69h-4.84v5.92h-1.94v-13.84h7.62v1.69Zm19.37,12.15h-8.37v-13.84h8.04v1.69h-6.1v4.33h4.96v1.69h-4.96v4.45h6.43v1.69Zm14.42.24c-2.94,0-4.59-1.82-4.59-1.82l1.1-1.47s1.47,1.49,3.53,1.49c1.29,0,2.39-.73,2.39-2.04,0-3-6.7-2.35-6.7-6.6,0-2.16,1.86-3.86,4.47-3.86s3.92,1.39,3.92,1.39l-.88,1.61s-1.27-1.2-3.04-1.2c-1.47,0-2.51.92-2.51,2.02,0,2.86,6.7,2.1,6.7,6.58,0,2.14-1.65,3.9-4.39,3.9m18.33,0c-2.94,0-4.59-1.82-4.59-1.82l1.1-1.47s1.47,1.49,3.53,1.49c1.29,0,2.39-.73,2.39-2.04,0-3-6.7-2.35-6.7-6.6,0-2.16,1.86-3.86,4.47-3.86s3.92,1.39,3.92,1.39l-.88,1.61s-1.27-1.2-3.04-1.2c-1.47,0-2.51.92-2.51,2.02,0,2.86,6.7,2.1,6.7,6.58,0,2.14-1.65,3.9-4.39,3.9m17.53-.24h-1.94v-13.84h1.94v13.84Zm18.36.24c-4,0-7.11-3.18-7.11-7.25s3.12-7.05,7.11-7.05,7.09,3.08,7.09,7.05-3.1,7.25-7.09,7.25m28.62-.24h-1.9l-6.17-8.98c-.51-.76-1.16-2.02-1.16-2.02h-.04s.14,1.23.14,2.02v8.98h-1.94v-13.84h1.92l6.15,9c.51.74,1.16,2,1.16,2h.04s-.14-1.23-.14-2v-9h1.94v13.84Zm20.04,0l-1.39-3.98h-5.21l-1.37,3.98h-2l4.98-13.84h2.04l4.98,13.84h-2.02Zm19.82,0h-8.13v-13.84h1.94v12.15h6.19v1.69Z"/>
  <path class="cls-1" d="m240.59,170.61h-.04s-.31,1.25-.55,1.96l-1.55,4.39h4.19l-1.53-4.39c-.23-.71-.53-1.96-.53-1.96"/>
  <path class="cls-1" d="m28.58,133.27c0,7.74,7.29,14.01,16.29,14.01,8.99,0,16.28-6.27,16.28-14,0-7.73-7.29-14.01-16.28-14.01-8.99,0-16.28,6.27-16.28,14m23.09-6.11h6.57c-2.13,1.59-5.5,4.08-5.5,6.07,0,.99,1.2,1.19,1.88,1.19h4.14v4.76h-6.49c-1.45,0-3.55-.53-4.39-2.77v6.38h-6.05v-6.38c-.85,2.24-2.94,2.77-4.39,2.77h-6.49v-4.76h4.14c.68,0,1.88-.2,1.88-1.19,0-1.99-3.36-4.47-5.5-6.07h6.57c1.56.95,3.09,2.36,3.78,3.95v-8.75h6.05s0,8.75,0,8.75c.69-1.6,2.22-3,3.78-3.95"/>
  <polygon class="cls-1" points="100.45 122.23 95.33 122.23 95.07 125.93 100.19 125.93 100.45 122.23"/>
  <path class="cls-1" d="m242.69,132.96c.24-3.55-3.33-5-6.24-5-1.6,0-3.46.17-4.99.86-1.5.66-2.31,1.9-2.42,3.77h4.93c.03-.7.4-2.15,1.93-2.15,2.15,0,1.71,2.07,1.63,3.32h-1.71c-5.19,0-8.11,1.83-8.11,4.69,0,2.53,1.42,4.46,4.82,4.46,2.09,0,3.19-.78,4.35-1.86h.06l.28,1.73h5.11c-.08-1.71-.07-2.34-.03-2.94l.41-6.88Zm-8.11,7.11c-1.03,0-1.75-.84-1.67-1.87.07-1,.69-1.68,1.51-2.08.77-.37,1.85-.31,2.99-.31-.14,1.91-.3,4.26-2.82,4.26"/>
  <polygon class="cls-1" points="265.26 128.43 260.14 134.81 260.14 134.81 264.46 142.79 271.13 142.79 265.9 134.5 271.42 128.43 265.26 128.43"/>
  <polygon class="cls-1" points="260.14 134.81 261.02 122.22 255.6 122.22 254.16 142.79 259.58 142.79 260.14 134.81 260.14 134.81"/>
  <path class="cls-1" d="m159.65,142.79h5.56l.32-5.34c.13-2.37.24-4.42,3.81-4.42.37,0,.74,0,1.1.03l.32-4.59c-1.76,0-3.36.3-4.75,2.09h-.06l-.18-2.12h-5.3c.03,1.58,0,2.43-.09,3.72l-.74,10.63Z"/>
  <polygon class="cls-1" points="177.06 122.22 171.81 122.22 170.38 142.79 175.62 142.79 177.06 122.22"/>
  <path class="cls-1" d="m128.14,122.22l-1.44,20.55h5.27l.32-1.75h.11c.74,1.06,2.35,1.97,4,1.97,4.9,0,6.75-4.03,7-7.58.24-3.49-1.45-7.36-5.84-7.36-1.93,0-3.44,1.07-4.53,2.36h-.11l.58-8.2h-5.37Zm7.43,8.98c2.12,0,2.46,2.6,2.38,4.36-.09,1.99-.71,4.47-3.2,4.47-1.96,0-2.4-2.47-2.32-4.22.09-1.9.43-4.61,3.14-4.62"/>
  <path class="cls-1" d="m152.37,128.01c-4.3-.07-7.95,2.61-8.25,7.15-.36,5.44,1.9,7.86,7.74,7.86,1.61,0,3.11-.14,4.42-.94,1.42-.8,2.64-2.15,2.75-3.9h-5.02c0,.94-.95,1.94-2.47,1.94-2.02,0-2.47-1.6-2.32-3.58h10.2c.55-5.06-1.3-8.45-7.06-8.54m-2.88,5.84c.25-1.62.76-2.96,2.65-3.05.83-.06,1.42.31,1.8.91.39.6.56,1.37.51,2.14h-4.95Z"/>
  <polygon class="cls-1" points="72.57 142.79 78.6 142.79 80.04 122.23 74.01 122.23 72.57 142.79"/>
  <polygon class="cls-1" points="86.71 122.23 79.51 131.36 85.93 142.79 93.15 142.79 85.95 131.06 93.53 122.23 86.71 122.23"/>
  <polygon class="cls-1" points="93.83 142.79 98.95 142.79 99.95 128.44 94.84 128.44 93.83 142.79"/>
  <path class="cls-1" d="m125.64,142.79l.68-9.6c.22-3.17-1.95-5.18-5.08-5.18-2.18.06-4.15.91-5.26,2.62-.4-1.45-2.4-2.53-4.36-2.53-1.35,0-3.55.19-5.15,2.28h-.06v-1.94s-5.43,0-5.43,0l-1,14.35h5.68l.57-8.23c0-.17-.06-3.12,2.72-3.12,1.75,0,1.93,1.52,1.9,2.92l-.61,8.43h5.52l.57-8.23c.03-.17-.08-3.12,2.56-3.12,1.8,0,1.91,1.55,1.83,2.92l-.6,8.42h5.5Z"/>
  <polygon class="cls-1" points="184.01 149.7 194.27 128.45 189.23 128.45 185.46 137.35 183.09 128.45 176.99 128.45 182.24 143.03 179.03 149.7 184.01 149.7"/>
  <polygon class="cls-1" points="201.73 131.33 194.79 131.33 192.58 135.82 199.51 135.82 201.73 131.33"/>
  <path class="cls-1" d="m212.65,125.79c1.98,0,2.76,1.54,2.76,2.89h5.84c.19-5.15-4.14-7-8.38-7-6.81,0-10.16,4.96-10.74,9.67-.69,5.62.78,11.65,9.07,11.65,7.85,0,9.75-4.74,9.75-7.03h-5.79c-.06.5-.66,3.08-3.64,3.08-3.45,0-3.99-3.23-3.58-7.5.41-4.27,2.73-5.75,4.71-5.75"/>
  <polygon class="cls-1" points="221.36 142.79 226.6 142.79 228.04 122.22 222.8 122.22 221.36 142.79"/>
  <path class="cls-1" d="m243.22,142.79h5.56l.32-5.34c.13-2.37.25-4.42,3.82-4.42.37,0,.74,0,1.14.03l.32-4.59c-1.8,0-3.4.3-4.79,2.09h-.06l-.18-2.12h-5.3c.04,1.58,0,2.43-.09,3.72l-.74,10.63Z"/>
  <polygon class="cls-1" points="277.9 198.28 279.62 198.28 279.62 202.5 280.49 202.5 280.49 198.28 282.21 198.28 282.21 197.52 277.9 197.52 277.9 198.28"/>
  <path class="cls-1" d="m286.43,197.52l-1.18,2.61c-.08.2-.15.48-.15.48h-.02s-.07-.27-.16-.48l-1.18-2.61h-.78l-.4,4.98h.85l.24-2.98c.01-.17-.01-.34-.01-.34h.02l1.08,2.4h.69l1.08-2.4h.02s-.02.17-.01.34l.24,2.98h.85l-.38-4.98h-.79Z"/>
</svg>