<?xml version="1.0" encoding="UTF-8"?>
<svg id="Capa_1" data-name="Capa 1" xmlns="http://www.w3.org/2000/svg" viewBox="0 0 265 98">
  <defs>
    <style>
      .cls-1 {
        fill: #fff;
      }
    </style>
  </defs>
  <path class="cls-1" d="m252.5,16.82v-.13c-32.44-8.54-75.47-13.48-119.97-13.48S44.96,8.15,12.5,16.7v.12c32.44-6.7,75.55-10.53,120.02-10.53s87.54,3.84,119.97,10.54"/>
  <path class="cls-1" d="m55.44,67.06c-.32-.17-.72-.27-1.66-.27h-1.95v4.32h2.43c1.32,0,2.14-.84,2.14-2.19,0-.89-.34-1.52-.96-1.86"/>
  <path class="cls-1" d="m73.48,66.65c-2.46,0-4.46,1.98-4.46,4.61s2,4.77,4.46,4.77,4.44-2.05,4.44-4.77-1.98-4.61-4.44-4.61"/>
  <path class="cls-1" d="m172.51,66.65c-2.46,0-4.46,1.98-4.46,4.61s2,4.77,4.46,4.77,4.44-2.05,4.44-4.77-1.98-4.61-4.44-4.61"/>
  <path class="cls-1" d="m36.92,66.79h-2.46v4.66h2.44c1.45,0,2.34-.9,2.34-2.36s-.89-2.31-2.32-2.31"/>
  <path class="cls-1" d="m12.5,55.27v28.77l.66.14c32.44,6.72,74.82,10.41,119.32,10.41s86.9-3.7,119.35-10.42l.67-.14v-28.76H12.5Zm24.68,17.65h-2.72v4.46h-1.69v-12.07h4.41c2.21,0,3.79,1.49,3.79,3.78s-1.59,3.83-3.79,3.83m19.78,4.46l-2.55-4.8h-2.58v4.8h-1.69v-12.07h3.69c1.26,0,1.79.1,2.25.27,1.23.46,2.03,1.68,2.03,3.26s-.86,2.84-2.17,3.26v.03s.14.15.36.55l2.56,4.68h-1.91Zm16.52.21c-3.49,0-6.2-2.77-6.2-6.32s2.72-6.15,6.2-6.15,6.19,2.68,6.19,6.15-2.7,6.32-6.19,6.32m22.29-10.8h-4.96v3.96h4.22v1.47h-4.22v5.16h-1.69v-12.07h6.65v1.47Zm16.89,10.59h-7.3v-12.07h7.01v1.47h-5.32v3.78h4.32v1.47h-4.32v3.88h5.6v1.47Zm12.57.21c-2.56,0-4-1.59-4-1.59l.96-1.28s1.28,1.3,3.08,1.3c1.13,0,2.08-.63,2.08-1.78,0-2.62-5.84-2.05-5.84-5.76,0-1.88,1.62-3.37,3.9-3.37s3.42,1.21,3.42,1.21l-.77,1.4s-1.11-1.04-2.65-1.04c-1.28,0-2.19.8-2.19,1.76,0,2.49,5.84,1.83,5.84,5.74,0,1.86-1.44,3.4-3.83,3.4m15.99,0c-2.56,0-4-1.59-4-1.59l.96-1.28s1.28,1.3,3.08,1.3c1.13,0,2.08-.63,2.08-1.78,0-2.62-5.84-2.05-5.84-5.76,0-1.88,1.62-3.37,3.9-3.37s3.42,1.21,3.42,1.21l-.77,1.4s-1.11-1.04-2.65-1.04c-1.28,0-2.19.8-2.19,1.76,0,2.49,5.84,1.83,5.84,5.74,0,1.86-1.43,3.4-3.83,3.4m15.29-.21h-1.69v-12.07h1.69v12.07Zm16.01.21c-3.49,0-6.2-2.77-6.2-6.32s2.72-6.15,6.2-6.15,6.19,2.68,6.19,6.15-2.7,6.32-6.19,6.32m24.96-.21h-1.66l-5.38-7.83c-.44-.67-1.01-1.76-1.01-1.76h-.03s.12,1.08.12,1.76v7.83h-1.69v-12.07h1.68l5.36,7.84c.45.65,1.01,1.74,1.01,1.74h.03s-.12-1.08-.12-1.74v-7.84h1.69v12.07Zm17.47,0l-1.21-3.47h-4.55l-1.2,3.47h-1.74l4.34-12.07h1.78l4.34,12.07h-1.76Zm17.29,0h-7.09v-12.07h1.69v10.59h5.4v1.47Z"/>
  <path class="cls-1" d="m211.49,66.98h-.03s-.27,1.09-.48,1.71l-1.35,3.83h3.66l-1.33-3.83c-.2-.62-.46-1.71-.46-1.71"/>
  <path class="cls-1" d="m26.62,34.41c0,6.75,6.36,12.21,14.2,12.22,7.84,0,14.2-5.47,14.2-12.21,0-6.74-6.36-12.21-14.2-12.21-7.84,0-14.2,5.47-14.2,12.21m20.13-5.33h5.73c-1.86,1.39-4.79,3.56-4.79,5.29,0,.86,1.05,1.04,1.64,1.04h3.61v4.15h-5.66c-1.27,0-3.09-.46-3.83-2.42v5.57h-5.28v-5.57c-.74,1.96-2.56,2.42-3.83,2.42h-5.66v-4.15h3.61c.6,0,1.64-.17,1.64-1.04,0-1.73-2.93-3.9-4.79-5.29h5.73c1.36.83,2.7,2.05,3.3,3.45v-7.63h5.27s0,7.63,0,7.63c.6-1.39,1.94-2.62,3.3-3.45"/>
  <polygon class="cls-1" points="89.29 24.78 84.83 24.78 84.6 28.01 89.07 28.01 89.29 24.78"/>
  <path class="cls-1" d="m213.33,34.14c.21-3.1-2.9-4.36-5.44-4.36-1.39,0-3.02.15-4.35.75-1.31.57-2.01,1.66-2.11,3.29h4.3c.03-.61.35-1.87,1.68-1.87,1.87,0,1.49,1.8,1.42,2.9h-1.49c-4.53,0-7.07,1.6-7.07,4.09,0,2.21,1.24,3.89,4.2,3.89,1.82,0,2.78-.68,3.79-1.62h.05l.24,1.51h4.46c-.07-1.49-.06-2.04-.03-2.56l.35-6Zm-7.07,6.2c-.9,0-1.52-.73-1.46-1.63.06-.87.6-1.47,1.32-1.81.67-.32,1.61-.27,2.61-.27-.12,1.67-.26,3.72-2.46,3.72"/>
  <polygon class="cls-1" points="233.01 30.19 228.54 35.75 228.54 35.75 232.31 42.72 238.13 42.72 233.57 35.48 238.38 30.19 233.01 30.19"/>
  <polygon class="cls-1" points="228.54 35.75 229.31 24.78 224.59 24.78 223.33 42.72 228.06 42.72 228.54 35.75 228.54 35.75"/>
  <path class="cls-1" d="m140.92,42.72h4.85l.28-4.66c.12-2.07.21-3.85,3.32-3.85.32,0,.65,0,.96.02l.28-4c-1.54,0-2.93.26-4.15,1.82h-.05l-.16-1.85h-4.62c.03,1.38,0,2.12-.08,3.24l-.65,9.27Z"/>
  <polygon class="cls-1" points="156.1 24.78 151.52 24.78 150.27 42.72 154.84 42.72 156.1 24.78"/>
  <path class="cls-1" d="m113.44,24.78l-1.25,17.92h4.6l.28-1.53h.1c.65.93,2.05,1.72,3.49,1.72,4.27,0,5.89-3.52,6.1-6.61.21-3.04-1.27-6.41-5.09-6.41-1.69,0-3,.94-3.95,2.05h-.09l.5-7.15h-4.68Zm6.48,7.83c1.85,0,2.15,2.27,2.08,3.8-.08,1.73-.62,3.9-2.79,3.9-1.71,0-2.1-2.15-2.02-3.68.08-1.66.38-4.02,2.74-4.03"/>
  <path class="cls-1" d="m134.57,29.83c-3.75-.06-6.94,2.28-7.2,6.23-.31,4.74,1.65,6.86,6.75,6.86,1.4,0,2.71-.12,3.85-.82,1.24-.7,2.3-1.88,2.4-3.4h-4.38c0,.82-.83,1.69-2.15,1.69-1.76,0-2.16-1.39-2.02-3.12h8.9c.48-4.41-1.14-7.37-6.16-7.45m-2.51,5.09c.22-1.42.66-2.59,2.31-2.66.72-.05,1.23.27,1.57.8.34.52.49,1.19.44,1.86h-4.32Z"/>
  <polygon class="cls-1" points="64.98 42.71 70.24 42.71 71.5 24.78 66.24 24.78 64.98 42.71"/>
  <polygon class="cls-1" points="77.31 24.78 71.03 32.75 76.63 42.71 82.92 42.71 76.65 32.49 83.25 24.78 77.31 24.78"/>
  <polygon class="cls-1" points="83.52 42.71 87.98 42.71 88.86 30.2 84.4 30.2 83.52 42.71"/>
  <path class="cls-1" d="m111.26,42.71l.59-8.37c.2-2.77-1.7-4.51-4.43-4.51-1.9.05-3.62.79-4.58,2.29-.35-1.27-2.1-2.21-3.8-2.21-1.18,0-3.09.16-4.49,1.99h-.05v-1.69s-4.74,0-4.74,0l-.87,12.52h4.95l.5-7.18c0-.15-.05-2.72,2.37-2.72,1.52,0,1.68,1.32,1.66,2.54l-.53,7.35h4.81l.49-7.18c.02-.15-.07-2.72,2.23-2.72,1.57,0,1.66,1.35,1.6,2.54l-.52,7.35h4.8Z"/>
  <polygon class="cls-1" points="162.16 48.74 171.1 30.2 166.71 30.2 163.42 37.97 161.36 30.2 156.03 30.2 160.62 42.92 157.82 48.74 162.16 48.74"/>
  <polygon class="cls-1" points="177.61 32.72 171.56 32.72 169.63 36.63 175.68 36.63 177.61 32.72"/>
  <path class="cls-1" d="m187.13,27.89c1.73,0,2.41,1.34,2.41,2.52h5.09c.16-4.49-3.61-6.1-7.31-6.1-5.94,0-8.86,4.33-9.36,8.43-.6,4.9.68,10.16,7.91,10.16,6.84,0,8.5-4.13,8.5-6.13h-5.05c-.06.44-.57,2.68-3.18,2.68-3.01,0-3.48-2.82-3.12-6.54.36-3.72,2.38-5.01,4.11-5.01"/>
  <polygon class="cls-1" points="194.73 42.72 199.3 42.72 200.55 24.78 195.98 24.78 194.73 42.72"/>
  <path class="cls-1" d="m213.79,42.72h4.85l.28-4.66c.12-2.07.21-3.85,3.33-3.85.32,0,.65,0,.99.02l.28-4c-1.57,0-2.96.26-4.17,1.82h-.05l-.16-1.85h-4.62c.03,1.38,0,2.12-.08,3.24l-.65,9.27Z"/>
  <polygon class="cls-1" points="244.03 91.1 245.54 91.1 245.54 94.78 246.29 94.78 246.29 91.1 247.79 91.1 247.79 90.44 244.03 90.44 244.03 91.1"/>
  <path class="cls-1" d="m251.47,90.44l-1.03,2.27c-.07.18-.13.41-.13.41h-.02s-.06-.24-.14-.41l-1.03-2.27h-.68l-.35,4.35h.74l.21-2.6c0-.15-.01-.3-.01-.3h.02l.94,2.09h.6l.94-2.09h.02s-.02.15-.01.3l.21,2.6h.74l-.34-4.35h-.69Z"/>
</svg>